<svg xmlns="http://www.w3.org/2000/svg" width="240" height="240" viewBox="0 0 240 240">
  <rect width="240" height="240" rx="0" fill="#d70000"/>
  <path fill="#fff" d="M51 84c8-18 24-29 47-29h39l-25 24c-7 7-13 12-19 16-7 5-10 10-10 17 0 12 9 21 22 21 14 0 24-11 24-27V94h30v18c0 33-18 52-48 52-30 0-52-19-52-46 0-15 7-28 21-38H51z"/>
  <path fill="#fff" d="M130 55c44 0 72 23 72 58 0 23-14 41-37 49l22 25h-35l-17-21h-13v-26h17c19 0 31-10 31-25 0-17-14-28-37-28h-3V55z"/>
  <path fill="#fff" d="M72 86h32l22-21H92z"/>
</svg>
